G75*
G70*
%OFA0B0*%
%FSLAX24Y24*%
%IPPOS*%
%LPD*%
%AMOC8*
5,1,8,0,0,1.08239X$1,22.5*
%
%ADD10C,0.0000*%
%ADD11R,0.0787X0.0276*%
%ADD12R,0.0748X0.0433*%
%ADD13R,0.0240X0.0870*%
%ADD14R,0.0472X0.0315*%
%ADD15R,0.0315X0.0472*%
%ADD16R,0.0472X0.0472*%
%ADD17C,0.0270*%
%ADD18C,0.0060*%
%ADD19C,0.0160*%
%ADD20C,0.0300*%
D10*
X006148Y000333D02*
X006148Y007419D01*
X012054Y007419D01*
X012054Y000333D01*
X006148Y000333D01*
D11*
X009967Y002281D03*
X009967Y002872D03*
X009967Y003463D03*
X009967Y004053D03*
D12*
X011286Y004821D03*
X011286Y001514D03*
D13*
X009162Y002137D03*
X008662Y002137D03*
X008162Y002137D03*
X007662Y002137D03*
X007662Y004197D03*
X008162Y004197D03*
X008662Y004197D03*
X009162Y004197D03*
D14*
X009337Y005214D03*
X008589Y005214D03*
X008589Y005923D03*
X009337Y005923D03*
X007447Y006081D03*
X006620Y006081D03*
X006620Y006789D03*
X007447Y006789D03*
D15*
X008589Y001159D03*
X009298Y001159D03*
D16*
X007467Y005254D03*
X006640Y005254D03*
D17*
X008943Y006435D03*
X009101Y003285D03*
X007329Y003325D03*
X007329Y001592D03*
D18*
X007644Y001907D01*
X007644Y002104D01*
X007452Y002089D02*
X006328Y002089D01*
X006328Y002147D02*
X007452Y002147D01*
X007452Y002206D02*
X006328Y002206D01*
X006328Y002265D02*
X007452Y002265D01*
X007452Y002323D02*
X006328Y002323D01*
X006328Y002382D02*
X007452Y002382D01*
X007452Y002440D02*
X006328Y002440D01*
X006328Y002499D02*
X007452Y002499D01*
X007452Y002557D02*
X006328Y002557D01*
X006328Y002616D02*
X007458Y002616D01*
X007452Y002609D02*
X007505Y002662D01*
X007819Y002662D01*
X007872Y002609D01*
X007872Y001665D01*
X007819Y001612D01*
X007554Y001612D01*
X007554Y001499D01*
X007422Y001367D01*
X007236Y001367D01*
X007104Y001499D01*
X007104Y001686D01*
X007236Y001817D01*
X007384Y001817D01*
X007452Y001885D01*
X007452Y002609D01*
X007751Y002733D02*
X006328Y002733D01*
X006328Y002791D02*
X007693Y002791D01*
X007634Y002850D02*
X006328Y002850D01*
X006328Y002909D02*
X007576Y002909D01*
X007517Y002967D02*
X006328Y002967D01*
X006328Y003026D02*
X007459Y003026D01*
X007400Y003084D02*
X006328Y003084D01*
X006328Y003143D02*
X007193Y003143D01*
X007236Y003100D02*
X007104Y003231D01*
X007104Y003418D01*
X007236Y003550D01*
X007422Y003550D01*
X007554Y003418D01*
X007554Y003269D01*
X008161Y002662D01*
X008319Y002662D01*
X008372Y002609D01*
X008372Y001665D01*
X008319Y001612D01*
X008005Y001612D01*
X007952Y001665D01*
X007952Y002532D01*
X007384Y003100D01*
X007236Y003100D01*
X007134Y003201D02*
X006328Y003201D01*
X006328Y003260D02*
X007104Y003260D01*
X007104Y003318D02*
X006328Y003318D01*
X006328Y003377D02*
X007104Y003377D01*
X007122Y003435D02*
X006328Y003435D01*
X006328Y003494D02*
X007180Y003494D01*
X007478Y003494D02*
X008132Y003494D01*
X008073Y003552D02*
X006328Y003552D01*
X006328Y003611D02*
X008015Y003611D01*
X007997Y003629D02*
X008390Y003236D01*
X008461Y003165D01*
X008903Y003165D01*
X009008Y003060D01*
X009194Y003060D01*
X009326Y003192D01*
X009326Y003379D01*
X009194Y003510D01*
X009008Y003510D01*
X008903Y003405D01*
X008560Y003405D01*
X008293Y003672D01*
X008319Y003672D01*
X008372Y003725D01*
X008372Y004669D01*
X008319Y004722D01*
X008005Y004722D01*
X007952Y004669D01*
X007952Y003725D01*
X007997Y003680D01*
X007997Y003629D01*
X007997Y003670D02*
X006328Y003670D01*
X006328Y003728D02*
X007452Y003728D01*
X007452Y003725D02*
X007505Y003672D01*
X007819Y003672D01*
X007872Y003725D01*
X007872Y004669D01*
X007819Y004722D01*
X007782Y004722D01*
X007782Y004969D01*
X007793Y004980D01*
X007793Y004997D01*
X007803Y005007D01*
X007803Y005107D01*
X007793Y005117D01*
X007793Y005527D01*
X007740Y005580D01*
X007567Y005580D01*
X007567Y005833D01*
X007721Y005833D01*
X007773Y005886D01*
X007773Y006275D01*
X007721Y006328D01*
X007174Y006328D01*
X007121Y006275D01*
X007121Y005886D01*
X007174Y005833D01*
X007327Y005833D01*
X007327Y005580D01*
X007193Y005580D01*
X007141Y005527D01*
X007141Y004980D01*
X007193Y004928D01*
X007542Y004928D01*
X007542Y004722D01*
X007505Y004722D01*
X007452Y004669D01*
X007452Y003725D01*
X007452Y003787D02*
X006328Y003787D01*
X006328Y003845D02*
X007452Y003845D01*
X007452Y003904D02*
X006328Y003904D01*
X006328Y003962D02*
X007452Y003962D01*
X007452Y004021D02*
X006328Y004021D01*
X006328Y004079D02*
X007452Y004079D01*
X007452Y004138D02*
X006328Y004138D01*
X006328Y004196D02*
X007452Y004196D01*
X007452Y004255D02*
X006328Y004255D01*
X006328Y004314D02*
X007452Y004314D01*
X007452Y004372D02*
X006328Y004372D01*
X006328Y004431D02*
X007452Y004431D01*
X007452Y004489D02*
X006328Y004489D01*
X006328Y004548D02*
X007452Y004548D01*
X007452Y004606D02*
X006328Y004606D01*
X006328Y004665D02*
X007452Y004665D01*
X007542Y004723D02*
X006328Y004723D01*
X006328Y004782D02*
X007542Y004782D01*
X007542Y004840D02*
X006328Y004840D01*
X006328Y004899D02*
X007542Y004899D01*
X007662Y005057D02*
X007683Y005057D01*
X007487Y005254D01*
X007467Y005254D01*
X007447Y005254D01*
X007447Y006081D01*
X007121Y006070D02*
X006947Y006070D01*
X006947Y006128D02*
X007121Y006128D01*
X007121Y006187D02*
X006947Y006187D01*
X006947Y006245D02*
X007121Y006245D01*
X007150Y006304D02*
X006918Y006304D01*
X006894Y006328D02*
X006947Y006275D01*
X006947Y005886D01*
X006894Y005833D01*
X006740Y005833D01*
X006740Y005580D01*
X006914Y005580D01*
X006966Y005527D01*
X006966Y004980D01*
X006914Y004928D01*
X006367Y004928D01*
X006328Y004966D01*
X006328Y000513D01*
X011857Y000513D01*
X011857Y002111D01*
X010451Y002111D01*
X010451Y002106D01*
X010398Y002054D01*
X010087Y002054D01*
X010087Y000973D01*
X010087Y000873D01*
X009820Y000606D01*
X009720Y000606D01*
X008854Y000606D01*
X008784Y000677D01*
X008627Y000833D01*
X008394Y000833D01*
X008341Y000886D01*
X008341Y001433D01*
X008394Y001486D01*
X008542Y001486D01*
X008542Y001612D01*
X008505Y001612D01*
X008452Y001665D01*
X008452Y002609D01*
X008505Y002662D01*
X008819Y002662D01*
X008872Y002609D01*
X008872Y001665D01*
X008819Y001612D01*
X008782Y001612D01*
X008782Y001486D01*
X008784Y001486D01*
X008836Y001433D01*
X008836Y000963D01*
X008954Y000846D01*
X009034Y000846D01*
X009019Y000873D01*
X009010Y000906D01*
X009010Y001129D01*
X009267Y001129D01*
X009267Y001189D01*
X009010Y001189D01*
X009010Y001413D01*
X009019Y001446D01*
X009036Y001475D01*
X009060Y001500D01*
X009090Y001517D01*
X009123Y001526D01*
X009268Y001526D01*
X009268Y001189D01*
X009328Y001189D01*
X009585Y001189D01*
X009585Y001413D01*
X009576Y001446D01*
X009559Y001475D01*
X009535Y001500D01*
X009505Y001517D01*
X009472Y001526D01*
X009328Y001526D01*
X009328Y001189D01*
X009328Y001129D01*
X009585Y001129D01*
X009585Y000906D01*
X009576Y000873D01*
X009561Y000846D01*
X009720Y000846D01*
X009847Y000973D01*
X009847Y002054D01*
X009536Y002054D01*
X009483Y002106D01*
X009483Y002456D01*
X009536Y002509D01*
X010398Y002509D01*
X010451Y002456D01*
X010451Y002451D01*
X011857Y002451D01*
X011857Y002702D01*
X011436Y002702D01*
X011402Y002669D01*
X011314Y002632D01*
X011218Y002632D01*
X011130Y002669D01*
X011097Y002702D01*
X010451Y002702D01*
X010451Y002697D01*
X010398Y002644D01*
X009536Y002644D01*
X009483Y002697D01*
X009483Y003047D01*
X009536Y003100D01*
X010398Y003100D01*
X010451Y003047D01*
X010451Y003042D01*
X011097Y003042D01*
X011130Y003075D01*
X011218Y003112D01*
X011314Y003112D01*
X011402Y003075D01*
X011436Y003042D01*
X011857Y003042D01*
X011857Y003883D01*
X010451Y003883D01*
X010451Y003878D01*
X010398Y003825D01*
X009536Y003825D01*
X009483Y003878D01*
X009483Y004228D01*
X009536Y004281D01*
X009847Y004281D01*
X009847Y005322D01*
X009720Y005449D01*
X009679Y005449D01*
X009694Y005422D01*
X009703Y005389D01*
X009703Y005244D01*
X009367Y005244D01*
X009367Y005185D01*
X009703Y005185D01*
X009703Y005040D01*
X009694Y005007D01*
X009677Y004977D01*
X009653Y004953D01*
X009623Y004936D01*
X009590Y004927D01*
X009367Y004927D01*
X009367Y005184D01*
X009307Y005184D01*
X009307Y004927D01*
X009084Y004927D01*
X009051Y004936D01*
X009021Y004953D01*
X008997Y004977D01*
X008980Y005007D01*
X008971Y005040D01*
X008971Y005185D01*
X009307Y005185D01*
X009307Y005244D01*
X008971Y005244D01*
X008971Y005389D01*
X008980Y005422D01*
X008995Y005449D01*
X008993Y005449D01*
X008915Y005371D01*
X008915Y005020D01*
X008862Y004967D01*
X008782Y004967D01*
X008782Y004722D01*
X008819Y004722D01*
X008872Y004669D01*
X008872Y003725D01*
X008819Y003672D01*
X008505Y003672D01*
X008452Y003725D01*
X008452Y004669D01*
X008505Y004722D01*
X008542Y004722D01*
X008542Y004967D01*
X008315Y004967D01*
X008263Y005020D01*
X008263Y005409D01*
X008315Y005462D01*
X008667Y005462D01*
X008823Y005619D01*
X008841Y005636D01*
X008619Y005636D01*
X008619Y005893D01*
X008559Y005893D01*
X008559Y005636D01*
X008336Y005636D01*
X008303Y005645D01*
X008273Y005662D01*
X008249Y005686D01*
X008232Y005715D01*
X008223Y005749D01*
X008223Y005893D01*
X008559Y005893D01*
X008559Y005953D01*
X008223Y005953D01*
X008223Y006098D01*
X008232Y006131D01*
X008249Y006160D01*
X008273Y006185D01*
X008303Y006202D01*
X008336Y006211D01*
X008559Y006211D01*
X008559Y005953D01*
X007773Y005953D01*
X007773Y006011D02*
X008223Y006011D01*
X008223Y006070D02*
X007773Y006070D01*
X007773Y006128D02*
X008231Y006128D01*
X008277Y006187D02*
X007773Y006187D01*
X007773Y006245D02*
X008815Y006245D01*
X008842Y006211D02*
X008619Y006211D01*
X008619Y005953D01*
X008955Y005953D01*
X008955Y006098D01*
X008946Y006131D01*
X008929Y006160D01*
X008905Y006185D01*
X008875Y006202D01*
X008842Y006211D01*
X008850Y006210D02*
X008999Y006210D01*
X009051Y006158D01*
X009011Y006118D01*
X009011Y005728D01*
X009050Y005689D01*
X008931Y005689D01*
X008946Y005715D01*
X008955Y005749D01*
X008955Y005893D01*
X008619Y005893D01*
X008619Y005953D01*
X009011Y005953D01*
X009011Y006011D02*
X008955Y006011D01*
X008955Y006070D02*
X009011Y006070D01*
X009021Y006128D02*
X008947Y006128D01*
X008901Y006187D02*
X009022Y006187D01*
X008850Y006210D02*
X008718Y006342D01*
X008718Y006528D01*
X008850Y006660D01*
X009036Y006660D01*
X009168Y006528D01*
X009168Y006380D01*
X009377Y006171D01*
X009610Y006171D01*
X009663Y006118D01*
X009663Y005728D01*
X009624Y005689D01*
X009820Y005689D01*
X009890Y005619D01*
X010087Y005422D01*
X010087Y005322D01*
X010087Y004281D01*
X010398Y004281D01*
X010451Y004228D01*
X010451Y004223D01*
X011857Y004223D01*
X011857Y007239D01*
X006328Y007239D01*
X006328Y007064D01*
X006334Y007068D01*
X006367Y007077D01*
X006591Y007077D01*
X006591Y006819D01*
X006650Y006819D01*
X006650Y007077D01*
X006874Y007077D01*
X006907Y007068D01*
X006936Y007051D01*
X006961Y007027D01*
X006978Y006997D01*
X006987Y006964D01*
X006987Y006819D01*
X006651Y006819D01*
X006651Y006759D01*
X006987Y006759D01*
X006987Y006615D01*
X006978Y006582D01*
X006961Y006552D01*
X006936Y006528D01*
X006907Y006511D01*
X006874Y006502D01*
X006650Y006502D01*
X006650Y006759D01*
X006591Y006759D01*
X006591Y006502D01*
X006367Y006502D01*
X006334Y006511D01*
X006328Y006514D01*
X006328Y006309D01*
X006347Y006328D01*
X006894Y006328D01*
X007161Y006511D02*
X007194Y006502D01*
X007417Y006502D01*
X007417Y006759D01*
X007477Y006759D01*
X007477Y006502D01*
X007701Y006502D01*
X007734Y006511D01*
X007763Y006528D01*
X007787Y006552D01*
X007805Y006582D01*
X007813Y006615D01*
X007813Y006759D01*
X007477Y006759D01*
X007477Y006819D01*
X007813Y006819D01*
X007813Y006964D01*
X007805Y006997D01*
X007787Y007027D01*
X007763Y007051D01*
X007734Y007068D01*
X007701Y007077D01*
X007477Y007077D01*
X007477Y006819D01*
X007417Y006819D01*
X007417Y006759D01*
X007081Y006759D01*
X007081Y006615D01*
X007090Y006582D01*
X007107Y006552D01*
X007131Y006528D01*
X007161Y006511D01*
X007121Y006538D02*
X006947Y006538D01*
X006982Y006597D02*
X007086Y006597D01*
X007081Y006655D02*
X006987Y006655D01*
X006987Y006714D02*
X007081Y006714D01*
X007081Y006819D02*
X007417Y006819D01*
X007417Y007077D01*
X007194Y007077D01*
X007161Y007068D01*
X007131Y007051D01*
X007107Y007027D01*
X007090Y006997D01*
X007081Y006964D01*
X007081Y006819D01*
X007081Y006831D02*
X006987Y006831D01*
X006987Y006889D02*
X007081Y006889D01*
X007081Y006948D02*
X006987Y006948D01*
X006972Y007007D02*
X007095Y007007D01*
X007156Y007065D02*
X006912Y007065D01*
X006650Y007065D02*
X006591Y007065D01*
X006591Y007007D02*
X006650Y007007D01*
X006650Y006948D02*
X006591Y006948D01*
X006591Y006889D02*
X006650Y006889D01*
X006650Y006831D02*
X006591Y006831D01*
X006651Y006772D02*
X007417Y006772D01*
X007417Y006714D02*
X007477Y006714D01*
X007477Y006772D02*
X011857Y006772D01*
X011857Y006714D02*
X007813Y006714D01*
X007813Y006655D02*
X008845Y006655D01*
X008787Y006597D02*
X007809Y006597D01*
X007774Y006538D02*
X008728Y006538D01*
X008718Y006480D02*
X006328Y006480D01*
X006328Y006421D02*
X008718Y006421D01*
X008718Y006363D02*
X006328Y006363D01*
X006591Y006538D02*
X006650Y006538D01*
X006650Y006597D02*
X006591Y006597D01*
X006591Y006655D02*
X006650Y006655D01*
X006650Y006714D02*
X006591Y006714D01*
X006328Y007065D02*
X006329Y007065D01*
X006328Y007124D02*
X011857Y007124D01*
X011857Y007182D02*
X006328Y007182D01*
X007417Y007065D02*
X007477Y007065D01*
X007477Y007007D02*
X007417Y007007D01*
X007417Y006948D02*
X007477Y006948D01*
X007477Y006889D02*
X007417Y006889D01*
X007417Y006831D02*
X007477Y006831D01*
X007813Y006831D02*
X011857Y006831D01*
X011857Y006889D02*
X007813Y006889D01*
X007813Y006948D02*
X011857Y006948D01*
X011857Y007007D02*
X007799Y007007D01*
X007738Y007065D02*
X011857Y007065D01*
X011857Y006655D02*
X009041Y006655D01*
X009100Y006597D02*
X011857Y006597D01*
X011857Y006538D02*
X009158Y006538D01*
X009168Y006480D02*
X011857Y006480D01*
X011857Y006421D02*
X009168Y006421D01*
X009185Y006363D02*
X011857Y006363D01*
X011857Y006304D02*
X009244Y006304D01*
X009302Y006245D02*
X011857Y006245D01*
X011857Y006187D02*
X009361Y006187D01*
X009337Y006041D02*
X008943Y006435D01*
X008756Y006304D02*
X007745Y006304D01*
X007477Y006538D02*
X007417Y006538D01*
X007417Y006597D02*
X007477Y006597D01*
X007477Y006655D02*
X007417Y006655D01*
X006620Y006081D02*
X006620Y005274D01*
X006640Y005254D01*
X006966Y005250D02*
X007141Y005250D01*
X007141Y005192D02*
X006966Y005192D01*
X006966Y005133D02*
X007141Y005133D01*
X007141Y005075D02*
X006966Y005075D01*
X006966Y005016D02*
X007141Y005016D01*
X007164Y004958D02*
X006944Y004958D01*
X006337Y004958D02*
X006328Y004958D01*
X006966Y005309D02*
X007141Y005309D01*
X007141Y005367D02*
X006966Y005367D01*
X006966Y005426D02*
X007141Y005426D01*
X007141Y005484D02*
X006966Y005484D01*
X006951Y005543D02*
X007156Y005543D01*
X007327Y005601D02*
X006740Y005601D01*
X006740Y005660D02*
X007327Y005660D01*
X007327Y005719D02*
X006740Y005719D01*
X006740Y005777D02*
X007327Y005777D01*
X007171Y005836D02*
X006896Y005836D01*
X006947Y005894D02*
X007121Y005894D01*
X007121Y005953D02*
X006947Y005953D01*
X006947Y006011D02*
X007121Y006011D01*
X007567Y005777D02*
X008223Y005777D01*
X008223Y005836D02*
X007723Y005836D01*
X007773Y005894D02*
X008559Y005894D01*
X008559Y005836D02*
X008619Y005836D01*
X008619Y005894D02*
X009011Y005894D01*
X009011Y005836D02*
X008955Y005836D01*
X008955Y005777D02*
X009011Y005777D01*
X009021Y005719D02*
X008947Y005719D01*
X008806Y005601D02*
X007567Y005601D01*
X007567Y005660D02*
X008276Y005660D01*
X008231Y005719D02*
X007567Y005719D01*
X007777Y005543D02*
X008748Y005543D01*
X008689Y005484D02*
X007793Y005484D01*
X007793Y005426D02*
X008279Y005426D01*
X008263Y005367D02*
X007793Y005367D01*
X007793Y005309D02*
X008263Y005309D01*
X008263Y005250D02*
X007793Y005250D01*
X007793Y005192D02*
X008263Y005192D01*
X008263Y005133D02*
X007793Y005133D01*
X007803Y005075D02*
X008263Y005075D01*
X008266Y005016D02*
X007803Y005016D01*
X007782Y004958D02*
X008542Y004958D01*
X008542Y004899D02*
X007782Y004899D01*
X007782Y004840D02*
X008542Y004840D01*
X008542Y004782D02*
X007782Y004782D01*
X007782Y004723D02*
X008542Y004723D01*
X008452Y004665D02*
X008372Y004665D01*
X008372Y004606D02*
X008452Y004606D01*
X008452Y004548D02*
X008372Y004548D01*
X008372Y004489D02*
X008452Y004489D01*
X008452Y004431D02*
X008372Y004431D01*
X008372Y004372D02*
X008452Y004372D01*
X008452Y004314D02*
X008372Y004314D01*
X008372Y004255D02*
X008452Y004255D01*
X008452Y004196D02*
X008372Y004196D01*
X008372Y004138D02*
X008452Y004138D01*
X008452Y004079D02*
X008372Y004079D01*
X008372Y004021D02*
X008452Y004021D01*
X008452Y003962D02*
X008372Y003962D01*
X008372Y003904D02*
X008452Y003904D01*
X008452Y003845D02*
X008372Y003845D01*
X008372Y003787D02*
X008452Y003787D01*
X008452Y003728D02*
X008372Y003728D01*
X008296Y003670D02*
X008951Y003670D01*
X008962Y003658D02*
X008992Y003641D01*
X009025Y003632D01*
X009132Y003632D01*
X009132Y004167D01*
X009192Y004167D01*
X009192Y004227D01*
X009412Y004227D01*
X009412Y004649D01*
X009403Y004682D01*
X009386Y004712D01*
X009362Y004736D01*
X009332Y004753D01*
X009299Y004762D01*
X009192Y004762D01*
X009192Y004227D01*
X009132Y004227D01*
X009132Y004167D01*
X008912Y004167D01*
X008912Y003745D01*
X008921Y003712D01*
X008938Y003682D01*
X008962Y003658D01*
X008916Y003728D02*
X008872Y003728D01*
X008872Y003787D02*
X008912Y003787D01*
X008912Y003845D02*
X008872Y003845D01*
X008872Y003904D02*
X008912Y003904D01*
X008912Y003962D02*
X008872Y003962D01*
X008872Y004021D02*
X008912Y004021D01*
X008912Y004079D02*
X008872Y004079D01*
X008872Y004138D02*
X008912Y004138D01*
X008872Y004196D02*
X009132Y004196D01*
X009132Y004227D02*
X008912Y004227D01*
X008912Y004649D01*
X008921Y004682D01*
X008938Y004712D01*
X008962Y004736D01*
X008992Y004753D01*
X009025Y004762D01*
X009132Y004762D01*
X009132Y004227D01*
X009132Y004255D02*
X009192Y004255D01*
X009192Y004196D02*
X009483Y004196D01*
X009483Y004138D02*
X009412Y004138D01*
X009412Y004167D02*
X009192Y004167D01*
X009192Y003632D01*
X009299Y003632D01*
X009332Y003641D01*
X009362Y003658D01*
X009386Y003682D01*
X009403Y003712D01*
X009412Y003745D01*
X009412Y004167D01*
X009412Y004079D02*
X009483Y004079D01*
X009483Y004021D02*
X009412Y004021D01*
X009412Y003962D02*
X009483Y003962D01*
X009483Y003904D02*
X009412Y003904D01*
X009412Y003845D02*
X009516Y003845D01*
X009412Y003787D02*
X011857Y003787D01*
X011857Y003845D02*
X010418Y003845D01*
X010386Y003728D02*
X011857Y003728D01*
X011857Y003670D02*
X010471Y003670D01*
X010465Y003680D02*
X010440Y003704D01*
X010411Y003721D01*
X010378Y003730D01*
X009997Y003730D01*
X009997Y003493D01*
X009937Y003493D01*
X009937Y003730D01*
X009556Y003730D01*
X009523Y003721D01*
X009493Y003704D01*
X009469Y003680D01*
X009452Y003650D01*
X009443Y003617D01*
X009443Y003492D01*
X009937Y003492D01*
X009937Y003433D01*
X009443Y003433D01*
X009443Y003308D01*
X009452Y003275D01*
X009469Y003245D01*
X009493Y003221D01*
X009523Y003204D01*
X009556Y003195D01*
X009937Y003195D01*
X009937Y003432D01*
X009997Y003432D01*
X009997Y003195D01*
X010378Y003195D01*
X010411Y003204D01*
X010440Y003221D01*
X010465Y003245D01*
X010482Y003275D01*
X010491Y003308D01*
X010491Y003433D01*
X009997Y003433D01*
X009997Y003492D01*
X010491Y003492D01*
X010491Y003617D01*
X010482Y003650D01*
X010465Y003680D01*
X010491Y003611D02*
X011857Y003611D01*
X011857Y003552D02*
X010491Y003552D01*
X010491Y003494D02*
X011857Y003494D01*
X011857Y003435D02*
X009997Y003435D01*
X009997Y003377D02*
X009937Y003377D01*
X009937Y003435D02*
X009269Y003435D01*
X009326Y003377D02*
X009443Y003377D01*
X009443Y003318D02*
X009326Y003318D01*
X009326Y003260D02*
X009461Y003260D01*
X009532Y003201D02*
X009326Y003201D01*
X009276Y003143D02*
X011857Y003143D01*
X011857Y003201D02*
X010402Y003201D01*
X010473Y003260D02*
X011857Y003260D01*
X011857Y003318D02*
X010491Y003318D01*
X010491Y003377D02*
X011857Y003377D01*
X011857Y003084D02*
X011381Y003084D01*
X011151Y003084D02*
X010413Y003084D01*
X009997Y003201D02*
X009937Y003201D01*
X009937Y003260D02*
X009997Y003260D01*
X009997Y003318D02*
X009937Y003318D01*
X009937Y003494D02*
X009997Y003494D01*
X009997Y003552D02*
X009937Y003552D01*
X009937Y003611D02*
X009997Y003611D01*
X009997Y003670D02*
X009937Y003670D01*
X009937Y003728D02*
X009997Y003728D01*
X009548Y003728D02*
X009407Y003728D01*
X009373Y003670D02*
X009463Y003670D01*
X009443Y003611D02*
X008354Y003611D01*
X008413Y003552D02*
X009443Y003552D01*
X009443Y003494D02*
X009210Y003494D01*
X009192Y003670D02*
X009132Y003670D01*
X009132Y003728D02*
X009192Y003728D01*
X009192Y003787D02*
X009132Y003787D01*
X009132Y003845D02*
X009192Y003845D01*
X009192Y003904D02*
X009132Y003904D01*
X009132Y003962D02*
X009192Y003962D01*
X009192Y004021D02*
X009132Y004021D01*
X009132Y004079D02*
X009192Y004079D01*
X009192Y004138D02*
X009132Y004138D01*
X008912Y004255D02*
X008872Y004255D01*
X008872Y004314D02*
X008912Y004314D01*
X008912Y004372D02*
X008872Y004372D01*
X008872Y004431D02*
X008912Y004431D01*
X008912Y004489D02*
X008872Y004489D01*
X008872Y004548D02*
X008912Y004548D01*
X008912Y004606D02*
X008872Y004606D01*
X008872Y004665D02*
X008916Y004665D01*
X008949Y004723D02*
X008782Y004723D01*
X008782Y004782D02*
X009847Y004782D01*
X009847Y004840D02*
X008782Y004840D01*
X008782Y004899D02*
X009847Y004899D01*
X009847Y004958D02*
X009658Y004958D01*
X009697Y005016D02*
X009847Y005016D01*
X009847Y005075D02*
X009703Y005075D01*
X009703Y005133D02*
X009847Y005133D01*
X009847Y005192D02*
X009367Y005192D01*
X009367Y005133D02*
X009307Y005133D01*
X009307Y005075D02*
X009367Y005075D01*
X009367Y005016D02*
X009307Y005016D01*
X009307Y004958D02*
X009367Y004958D01*
X009016Y004958D02*
X008782Y004958D01*
X008911Y005016D02*
X008977Y005016D01*
X008971Y005075D02*
X008915Y005075D01*
X008915Y005133D02*
X008971Y005133D01*
X008915Y005192D02*
X009307Y005192D01*
X008971Y005250D02*
X008915Y005250D01*
X008915Y005309D02*
X008971Y005309D01*
X008971Y005367D02*
X008915Y005367D01*
X008970Y005426D02*
X008982Y005426D01*
X008943Y005569D02*
X009770Y005569D01*
X009967Y005372D01*
X009967Y004053D01*
X010087Y004314D02*
X011857Y004314D01*
X011857Y004372D02*
X010087Y004372D01*
X010087Y004431D02*
X011857Y004431D01*
X011857Y004489D02*
X010087Y004489D01*
X010087Y004548D02*
X010841Y004548D01*
X010822Y004567D02*
X010875Y004514D01*
X011697Y004514D01*
X011750Y004567D01*
X011750Y005075D01*
X011857Y005075D01*
X011857Y005133D02*
X010087Y005133D01*
X010087Y005075D02*
X010822Y005075D01*
X010822Y004567D01*
X010822Y004606D02*
X010087Y004606D01*
X010087Y004665D02*
X010822Y004665D01*
X010822Y004723D02*
X010087Y004723D01*
X010087Y004782D02*
X010822Y004782D01*
X010822Y004840D02*
X010087Y004840D01*
X010087Y004899D02*
X010822Y004899D01*
X010822Y004958D02*
X010087Y004958D01*
X010087Y005016D02*
X010822Y005016D01*
X010822Y005075D02*
X010875Y005127D01*
X011697Y005127D01*
X011750Y005075D01*
X011750Y005016D02*
X011857Y005016D01*
X011857Y004958D02*
X011750Y004958D01*
X011750Y004899D02*
X011857Y004899D01*
X011857Y004840D02*
X011750Y004840D01*
X011750Y004782D02*
X011857Y004782D01*
X011857Y004723D02*
X011750Y004723D01*
X011750Y004665D02*
X011857Y004665D01*
X011857Y004606D02*
X011750Y004606D01*
X011731Y004548D02*
X011857Y004548D01*
X011857Y004255D02*
X010424Y004255D01*
X009847Y004314D02*
X009412Y004314D01*
X009412Y004372D02*
X009847Y004372D01*
X009847Y004431D02*
X009412Y004431D01*
X009412Y004489D02*
X009847Y004489D01*
X009847Y004548D02*
X009412Y004548D01*
X009412Y004606D02*
X009847Y004606D01*
X009847Y004665D02*
X009408Y004665D01*
X009374Y004723D02*
X009847Y004723D01*
X009192Y004723D02*
X009132Y004723D01*
X009132Y004665D02*
X009192Y004665D01*
X009192Y004606D02*
X009132Y004606D01*
X009132Y004548D02*
X009192Y004548D01*
X009192Y004489D02*
X009132Y004489D01*
X009132Y004431D02*
X009192Y004431D01*
X009192Y004372D02*
X009132Y004372D01*
X009132Y004314D02*
X009192Y004314D01*
X009412Y004255D02*
X009510Y004255D01*
X008662Y004197D02*
X008662Y005142D01*
X008589Y005214D01*
X008943Y005569D01*
X008619Y005660D02*
X008559Y005660D01*
X008559Y005719D02*
X008619Y005719D01*
X008619Y005777D02*
X008559Y005777D01*
X008559Y005953D02*
X008619Y005953D01*
X008619Y006011D02*
X008559Y006011D01*
X008559Y006070D02*
X008619Y006070D01*
X008619Y006128D02*
X008559Y006128D01*
X008559Y006187D02*
X008619Y006187D01*
X009337Y006041D02*
X009337Y005923D01*
X009663Y005894D02*
X011857Y005894D01*
X011857Y005836D02*
X009663Y005836D01*
X009663Y005777D02*
X011857Y005777D01*
X011857Y005719D02*
X009653Y005719D01*
X009849Y005660D02*
X011857Y005660D01*
X011857Y005601D02*
X009907Y005601D01*
X009966Y005543D02*
X011857Y005543D01*
X011857Y005484D02*
X010024Y005484D01*
X010083Y005426D02*
X011857Y005426D01*
X011857Y005367D02*
X010087Y005367D01*
X010087Y005309D02*
X011857Y005309D01*
X011857Y005250D02*
X010087Y005250D01*
X010087Y005192D02*
X011857Y005192D01*
X011857Y005953D02*
X009663Y005953D01*
X009663Y006011D02*
X011857Y006011D01*
X011857Y006070D02*
X009663Y006070D01*
X009653Y006128D02*
X011857Y006128D01*
X009847Y005309D02*
X009703Y005309D01*
X009703Y005367D02*
X009802Y005367D01*
X009743Y005426D02*
X009692Y005426D01*
X009703Y005250D02*
X009847Y005250D01*
X007952Y004665D02*
X007872Y004665D01*
X007872Y004606D02*
X007952Y004606D01*
X007952Y004548D02*
X007872Y004548D01*
X007872Y004489D02*
X007952Y004489D01*
X007952Y004431D02*
X007872Y004431D01*
X007872Y004372D02*
X007952Y004372D01*
X007952Y004314D02*
X007872Y004314D01*
X007872Y004255D02*
X007952Y004255D01*
X007952Y004196D02*
X007872Y004196D01*
X007872Y004138D02*
X007952Y004138D01*
X007952Y004079D02*
X007872Y004079D01*
X007872Y004021D02*
X007952Y004021D01*
X007952Y003962D02*
X007872Y003962D01*
X007872Y003904D02*
X007952Y003904D01*
X007952Y003845D02*
X007872Y003845D01*
X007872Y003787D02*
X007952Y003787D01*
X007952Y003728D02*
X007872Y003728D01*
X008117Y003679D02*
X008510Y003285D01*
X009101Y003285D01*
X008933Y003435D02*
X008530Y003435D01*
X008471Y003494D02*
X008991Y003494D01*
X008425Y003201D02*
X007622Y003201D01*
X007564Y003260D02*
X008366Y003260D01*
X008308Y003318D02*
X007554Y003318D01*
X007554Y003377D02*
X008249Y003377D01*
X008190Y003435D02*
X007537Y003435D01*
X007329Y003325D02*
X008156Y002498D01*
X008156Y002419D01*
X008156Y002144D01*
X007952Y002147D02*
X007872Y002147D01*
X007872Y002089D02*
X007952Y002089D01*
X007952Y002030D02*
X007872Y002030D01*
X007872Y001972D02*
X007952Y001972D01*
X007952Y001913D02*
X007872Y001913D01*
X007872Y001855D02*
X007952Y001855D01*
X007952Y001796D02*
X007872Y001796D01*
X007872Y001738D02*
X007952Y001738D01*
X007952Y001679D02*
X007872Y001679D01*
X007827Y001621D02*
X007996Y001621D01*
X008327Y001621D02*
X008496Y001621D01*
X008452Y001679D02*
X008372Y001679D01*
X008372Y001738D02*
X008452Y001738D01*
X008452Y001796D02*
X008372Y001796D01*
X008372Y001855D02*
X008452Y001855D01*
X008452Y001913D02*
X008372Y001913D01*
X008372Y001972D02*
X008452Y001972D01*
X008452Y002030D02*
X008372Y002030D01*
X008372Y002089D02*
X008452Y002089D01*
X008452Y002147D02*
X008372Y002147D01*
X008372Y002206D02*
X008452Y002206D01*
X008452Y002265D02*
X008372Y002265D01*
X008372Y002323D02*
X008452Y002323D01*
X008452Y002382D02*
X008372Y002382D01*
X008372Y002440D02*
X008452Y002440D01*
X008452Y002499D02*
X008372Y002499D01*
X008372Y002557D02*
X008452Y002557D01*
X008458Y002616D02*
X008365Y002616D01*
X008149Y002674D02*
X008960Y002674D01*
X008962Y002676D02*
X008938Y002652D01*
X008921Y002622D01*
X008912Y002589D01*
X008912Y002167D01*
X009132Y002167D01*
X009132Y002107D01*
X009192Y002107D01*
X009192Y002167D01*
X009412Y002167D01*
X009412Y002589D01*
X009403Y002622D01*
X009386Y002652D01*
X009362Y002676D01*
X009332Y002693D01*
X009299Y002702D01*
X009192Y002702D01*
X009192Y002167D01*
X009132Y002167D01*
X009132Y002702D01*
X009025Y002702D01*
X008992Y002693D01*
X008962Y002676D01*
X008919Y002616D02*
X008865Y002616D01*
X008872Y002557D02*
X008912Y002557D01*
X008912Y002499D02*
X008872Y002499D01*
X008872Y002440D02*
X008912Y002440D01*
X008912Y002382D02*
X008872Y002382D01*
X008872Y002323D02*
X008912Y002323D01*
X008912Y002265D02*
X008872Y002265D01*
X008872Y002206D02*
X008912Y002206D01*
X008872Y002147D02*
X009132Y002147D01*
X009132Y002107D02*
X008912Y002107D01*
X008912Y001685D01*
X008921Y001652D01*
X008938Y001622D01*
X008962Y001598D01*
X008992Y001581D01*
X009025Y001572D01*
X009132Y001572D01*
X009132Y002107D01*
X009132Y002089D02*
X009192Y002089D01*
X009192Y002107D02*
X009192Y001572D01*
X009299Y001572D01*
X009332Y001581D01*
X009362Y001598D01*
X009386Y001622D01*
X009403Y001652D01*
X009412Y001685D01*
X009412Y002107D01*
X009192Y002107D01*
X009192Y002147D02*
X009483Y002147D01*
X009483Y002206D02*
X009412Y002206D01*
X009412Y002265D02*
X009483Y002265D01*
X009483Y002323D02*
X009412Y002323D01*
X009412Y002382D02*
X009483Y002382D01*
X009483Y002440D02*
X009412Y002440D01*
X009412Y002499D02*
X009525Y002499D01*
X009412Y002557D02*
X011857Y002557D01*
X011857Y002499D02*
X010408Y002499D01*
X010428Y002674D02*
X011124Y002674D01*
X011408Y002674D02*
X011857Y002674D01*
X011857Y002616D02*
X009405Y002616D01*
X009364Y002674D02*
X009506Y002674D01*
X009483Y002733D02*
X008091Y002733D01*
X008032Y002791D02*
X009483Y002791D01*
X009483Y002850D02*
X007974Y002850D01*
X007915Y002909D02*
X009483Y002909D01*
X009483Y002967D02*
X007856Y002967D01*
X007798Y003026D02*
X009483Y003026D01*
X009520Y003084D02*
X009218Y003084D01*
X008984Y003084D02*
X007739Y003084D01*
X007681Y003143D02*
X008925Y003143D01*
X009132Y002674D02*
X009192Y002674D01*
X009192Y002616D02*
X009132Y002616D01*
X009132Y002557D02*
X009192Y002557D01*
X009192Y002499D02*
X009132Y002499D01*
X009132Y002440D02*
X009192Y002440D01*
X009192Y002382D02*
X009132Y002382D01*
X009132Y002323D02*
X009192Y002323D01*
X009192Y002265D02*
X009132Y002265D01*
X009132Y002206D02*
X009192Y002206D01*
X009192Y002030D02*
X009132Y002030D01*
X009132Y001972D02*
X009192Y001972D01*
X009192Y001913D02*
X009132Y001913D01*
X009132Y001855D02*
X009192Y001855D01*
X009192Y001796D02*
X009132Y001796D01*
X009132Y001738D02*
X009192Y001738D01*
X009192Y001679D02*
X009132Y001679D01*
X009132Y001621D02*
X009192Y001621D01*
X009268Y001503D02*
X009328Y001503D01*
X009328Y001445D02*
X009268Y001445D01*
X009268Y001386D02*
X009328Y001386D01*
X009328Y001328D02*
X009268Y001328D01*
X009268Y001269D02*
X009328Y001269D01*
X009328Y001211D02*
X009268Y001211D01*
X009267Y001152D02*
X008836Y001152D01*
X008836Y001094D02*
X009010Y001094D01*
X009010Y001035D02*
X008836Y001035D01*
X008836Y000977D02*
X009010Y000977D01*
X009010Y000918D02*
X008882Y000918D01*
X008940Y000859D02*
X009027Y000859D01*
X008904Y000726D02*
X008589Y001041D01*
X008589Y001159D01*
X008662Y001126D01*
X008662Y002137D01*
X008662Y002150D01*
X008872Y002089D02*
X008912Y002089D01*
X008912Y002030D02*
X008872Y002030D01*
X008872Y001972D02*
X008912Y001972D01*
X008912Y001913D02*
X008872Y001913D01*
X008872Y001855D02*
X008912Y001855D01*
X008912Y001796D02*
X008872Y001796D01*
X008872Y001738D02*
X008912Y001738D01*
X008913Y001679D02*
X008872Y001679D01*
X008827Y001621D02*
X008940Y001621D01*
X008782Y001562D02*
X009847Y001562D01*
X009847Y001621D02*
X009384Y001621D01*
X009410Y001679D02*
X009847Y001679D01*
X009847Y001738D02*
X009412Y001738D01*
X009412Y001796D02*
X009847Y001796D01*
X009847Y001855D02*
X009412Y001855D01*
X009412Y001913D02*
X009847Y001913D01*
X009847Y001972D02*
X009412Y001972D01*
X009412Y002030D02*
X009847Y002030D01*
X010087Y002030D02*
X011857Y002030D01*
X011857Y001972D02*
X010087Y001972D01*
X010087Y001913D02*
X011857Y001913D01*
X011857Y001855D02*
X010087Y001855D01*
X010087Y001796D02*
X010851Y001796D01*
X010875Y001820D02*
X010822Y001767D01*
X010822Y001260D01*
X010875Y001207D01*
X011697Y001207D01*
X011750Y001260D01*
X011750Y001767D01*
X011697Y001820D01*
X010875Y001820D01*
X010822Y001738D02*
X010087Y001738D01*
X010087Y001679D02*
X010822Y001679D01*
X010822Y001621D02*
X010087Y001621D01*
X010087Y001562D02*
X010822Y001562D01*
X010822Y001503D02*
X010087Y001503D01*
X010087Y001445D02*
X010822Y001445D01*
X010822Y001386D02*
X010087Y001386D01*
X010087Y001328D02*
X010822Y001328D01*
X010822Y001269D02*
X010087Y001269D01*
X010087Y001211D02*
X010871Y001211D01*
X010087Y001152D02*
X011857Y001152D01*
X011857Y001094D02*
X010087Y001094D01*
X010087Y001035D02*
X011857Y001035D01*
X011857Y000977D02*
X010087Y000977D01*
X010087Y000918D02*
X011857Y000918D01*
X011857Y000859D02*
X010073Y000859D01*
X010014Y000801D02*
X011857Y000801D01*
X011857Y000742D02*
X009956Y000742D01*
X009897Y000684D02*
X011857Y000684D01*
X011857Y000625D02*
X009839Y000625D01*
X009770Y000726D02*
X009967Y000923D01*
X009967Y002281D01*
X010433Y002089D02*
X011857Y002089D01*
X011857Y001796D02*
X011721Y001796D01*
X011750Y001738D02*
X011857Y001738D01*
X011857Y001679D02*
X011750Y001679D01*
X011750Y001621D02*
X011857Y001621D01*
X011857Y001562D02*
X011750Y001562D01*
X011750Y001503D02*
X011857Y001503D01*
X011857Y001445D02*
X011750Y001445D01*
X011750Y001386D02*
X011857Y001386D01*
X011857Y001328D02*
X011750Y001328D01*
X011750Y001269D02*
X011857Y001269D01*
X011857Y001211D02*
X011701Y001211D01*
X011857Y000567D02*
X006328Y000567D01*
X006328Y000625D02*
X008835Y000625D01*
X008777Y000684D02*
X006328Y000684D01*
X006328Y000742D02*
X008718Y000742D01*
X008660Y000801D02*
X006328Y000801D01*
X006328Y000859D02*
X008368Y000859D01*
X008341Y000918D02*
X006328Y000918D01*
X006328Y000977D02*
X008341Y000977D01*
X008341Y001035D02*
X006328Y001035D01*
X006328Y001094D02*
X008341Y001094D01*
X008341Y001152D02*
X006328Y001152D01*
X006328Y001211D02*
X008341Y001211D01*
X008341Y001269D02*
X006328Y001269D01*
X006328Y001328D02*
X008341Y001328D01*
X008341Y001386D02*
X007441Y001386D01*
X007500Y001445D02*
X008354Y001445D01*
X008542Y001503D02*
X007554Y001503D01*
X007554Y001562D02*
X008542Y001562D01*
X008782Y001503D02*
X009067Y001503D01*
X009019Y001445D02*
X008824Y001445D01*
X008836Y001386D02*
X009010Y001386D01*
X009010Y001328D02*
X008836Y001328D01*
X008836Y001269D02*
X009010Y001269D01*
X009010Y001211D02*
X008836Y001211D01*
X009328Y001152D02*
X009847Y001152D01*
X009847Y001094D02*
X009585Y001094D01*
X009585Y001035D02*
X009847Y001035D01*
X009847Y000977D02*
X009585Y000977D01*
X009585Y000918D02*
X009792Y000918D01*
X009734Y000859D02*
X009568Y000859D01*
X009770Y000726D02*
X008904Y000726D01*
X009585Y001211D02*
X009847Y001211D01*
X009847Y001269D02*
X009585Y001269D01*
X009585Y001328D02*
X009847Y001328D01*
X009847Y001386D02*
X009585Y001386D01*
X009576Y001445D02*
X009847Y001445D01*
X009847Y001503D02*
X009528Y001503D01*
X009501Y002089D02*
X009412Y002089D01*
X008162Y002413D02*
X008156Y002419D01*
X007952Y002440D02*
X007872Y002440D01*
X007872Y002382D02*
X007952Y002382D01*
X007952Y002323D02*
X007872Y002323D01*
X007872Y002265D02*
X007952Y002265D01*
X007952Y002206D02*
X007872Y002206D01*
X007452Y002030D02*
X006328Y002030D01*
X006328Y001972D02*
X007452Y001972D01*
X007452Y001913D02*
X006328Y001913D01*
X006328Y001855D02*
X007422Y001855D01*
X007215Y001796D02*
X006328Y001796D01*
X006328Y001738D02*
X007156Y001738D01*
X007104Y001679D02*
X006328Y001679D01*
X006328Y001621D02*
X007104Y001621D01*
X007104Y001562D02*
X006328Y001562D01*
X006328Y001503D02*
X007104Y001503D01*
X007158Y001445D02*
X006328Y001445D01*
X006328Y001386D02*
X007217Y001386D01*
X007872Y002499D02*
X007952Y002499D01*
X007927Y002557D02*
X007872Y002557D01*
X007865Y002616D02*
X007868Y002616D01*
X007810Y002674D02*
X006328Y002674D01*
X008117Y003679D02*
X008117Y004152D01*
X008162Y004197D01*
X007662Y004197D02*
X007662Y005057D01*
X007662Y005059D01*
D19*
X009967Y004053D02*
X012054Y004053D01*
X012054Y003463D02*
X009967Y003463D01*
X010085Y002892D02*
X009967Y002872D01*
X011266Y002872D01*
X012054Y002872D01*
X012054Y002281D02*
X009967Y002281D01*
X008162Y002137D02*
X008156Y002144D01*
X007662Y002137D02*
X007644Y002104D01*
D20*
X008392Y003049D03*
X011266Y002872D03*
M02*
