G75*
G70*
%OFA0B0*%
%FSLAX24Y24*%
%IPPOS*%
%LPD*%
%AMOC8*
5,1,8,0,0,1.08239X$1,22.5*
%
%ADD10C,0.0000*%
%ADD11R,0.0276X0.0787*%
%ADD12R,0.0433X0.0748*%
%ADD13C,0.0270*%
%ADD14C,0.0240*%
%ADD15C,0.0300*%
%ADD16C,0.0160*%
%ADD17C,0.0060*%
D10*
X006148Y000333D02*
X006148Y007419D01*
X012054Y007419D01*
X012054Y000333D01*
X006148Y000333D01*
D11*
X007329Y002222D03*
X007920Y002222D03*
X008510Y002222D03*
X009101Y002222D03*
X009101Y005529D03*
X008510Y005529D03*
X007920Y005529D03*
X007329Y005529D03*
D12*
X006561Y006848D03*
X009869Y006848D03*
X009869Y000903D03*
X006561Y000903D03*
D13*
X007329Y001592D03*
X007329Y003325D03*
X009101Y003285D03*
X008943Y006435D03*
D14*
X009101Y005529D02*
X009101Y003285D01*
X009101Y002222D01*
X008510Y002222D02*
X008510Y003049D01*
X008510Y005529D01*
X007329Y005529D02*
X007329Y003325D01*
X007329Y002222D01*
D15*
X008392Y003049D03*
X011266Y002872D03*
D16*
X008510Y003049D02*
X008392Y003049D01*
X007920Y002222D02*
X007880Y002104D01*
D17*
X007890Y002089D02*
X007950Y002089D01*
X007950Y002147D02*
X007890Y002147D01*
X007890Y002192D02*
X007950Y002192D01*
X007950Y002252D01*
X008187Y002252D01*
X008187Y002633D01*
X008179Y002666D01*
X008161Y002696D01*
X008137Y002720D01*
X008108Y002737D01*
X008075Y002746D01*
X007950Y002746D01*
X007950Y002252D01*
X007890Y002252D01*
X007890Y002192D01*
X007890Y001699D01*
X007765Y001699D01*
X007732Y001708D01*
X007702Y001725D01*
X007678Y001749D01*
X007661Y001778D01*
X007652Y001811D01*
X007652Y002192D01*
X007890Y002192D01*
X007890Y002206D02*
X007557Y002206D01*
X007557Y002147D02*
X007652Y002147D01*
X007652Y002089D02*
X007557Y002089D01*
X007557Y002030D02*
X007652Y002030D01*
X007652Y001972D02*
X007557Y001972D01*
X007557Y001913D02*
X007652Y001913D01*
X007652Y001855D02*
X007557Y001855D01*
X007557Y001796D02*
X007656Y001796D01*
X007689Y001738D02*
X006328Y001738D01*
X006328Y001796D02*
X007101Y001796D01*
X007101Y001791D02*
X007154Y001739D01*
X007504Y001739D01*
X007557Y001791D01*
X007557Y002653D01*
X007539Y002671D01*
X007539Y003216D01*
X007554Y003231D01*
X007554Y003418D01*
X007539Y003433D01*
X007539Y005081D01*
X007557Y005098D01*
X007557Y005960D01*
X007504Y006013D01*
X007154Y006013D01*
X007101Y005960D01*
X007101Y005098D01*
X007119Y005081D01*
X007119Y003433D01*
X007104Y003418D01*
X007104Y003231D01*
X007119Y003216D01*
X007119Y002671D01*
X007101Y002653D01*
X007101Y001791D01*
X007101Y001855D02*
X006328Y001855D01*
X006328Y001913D02*
X007101Y001913D01*
X007101Y001972D02*
X006328Y001972D01*
X006328Y002030D02*
X007101Y002030D01*
X007101Y002089D02*
X006328Y002089D01*
X006328Y002147D02*
X007101Y002147D01*
X007101Y002206D02*
X006328Y002206D01*
X006328Y002265D02*
X007101Y002265D01*
X007101Y002323D02*
X006328Y002323D01*
X006328Y002382D02*
X007101Y002382D01*
X007101Y002440D02*
X006328Y002440D01*
X006328Y002499D02*
X007101Y002499D01*
X007101Y002557D02*
X006328Y002557D01*
X006328Y002616D02*
X007101Y002616D01*
X007119Y002674D02*
X006328Y002674D01*
X006328Y002733D02*
X007119Y002733D01*
X007119Y002791D02*
X006328Y002791D01*
X006328Y002850D02*
X007119Y002850D01*
X007119Y002909D02*
X006328Y002909D01*
X006328Y002967D02*
X007119Y002967D01*
X007119Y003026D02*
X006328Y003026D01*
X006328Y003084D02*
X007119Y003084D01*
X007119Y003143D02*
X006328Y003143D01*
X006328Y003201D02*
X007119Y003201D01*
X007104Y003260D02*
X006328Y003260D01*
X006328Y003318D02*
X007104Y003318D01*
X007104Y003377D02*
X006328Y003377D01*
X006328Y003435D02*
X007119Y003435D01*
X007119Y003494D02*
X006328Y003494D01*
X006328Y003552D02*
X007119Y003552D01*
X007119Y003611D02*
X006328Y003611D01*
X006328Y003670D02*
X007119Y003670D01*
X007119Y003728D02*
X006328Y003728D01*
X006328Y003787D02*
X007119Y003787D01*
X007119Y003845D02*
X006328Y003845D01*
X006328Y003904D02*
X007119Y003904D01*
X007119Y003962D02*
X006328Y003962D01*
X006328Y004021D02*
X007119Y004021D01*
X007119Y004079D02*
X006328Y004079D01*
X006328Y004138D02*
X007119Y004138D01*
X007119Y004196D02*
X006328Y004196D01*
X006328Y004255D02*
X007119Y004255D01*
X007119Y004314D02*
X006328Y004314D01*
X006328Y004372D02*
X007119Y004372D01*
X007119Y004431D02*
X006328Y004431D01*
X006328Y004489D02*
X007119Y004489D01*
X007119Y004548D02*
X006328Y004548D01*
X006328Y004606D02*
X007119Y004606D01*
X007119Y004665D02*
X006328Y004665D01*
X006328Y004723D02*
X007119Y004723D01*
X007119Y004782D02*
X006328Y004782D01*
X006328Y004840D02*
X007119Y004840D01*
X007119Y004899D02*
X006328Y004899D01*
X006328Y004958D02*
X007119Y004958D01*
X007119Y005016D02*
X006328Y005016D01*
X006328Y005075D02*
X007119Y005075D01*
X007101Y005133D02*
X006328Y005133D01*
X006328Y005192D02*
X007101Y005192D01*
X007101Y005250D02*
X006328Y005250D01*
X006328Y005309D02*
X007101Y005309D01*
X007101Y005367D02*
X006328Y005367D01*
X006328Y005426D02*
X007101Y005426D01*
X007101Y005484D02*
X006328Y005484D01*
X006328Y005543D02*
X007101Y005543D01*
X007101Y005601D02*
X006328Y005601D01*
X006328Y005660D02*
X007101Y005660D01*
X007101Y005719D02*
X006328Y005719D01*
X006328Y005777D02*
X007101Y005777D01*
X007101Y005836D02*
X006328Y005836D01*
X006328Y005894D02*
X007101Y005894D01*
X007101Y005953D02*
X006328Y005953D01*
X006328Y006011D02*
X007152Y006011D01*
X007506Y006011D02*
X007686Y006011D01*
X007678Y006003D02*
X007661Y005973D01*
X007652Y005940D01*
X007652Y005559D01*
X007890Y005559D01*
X007890Y005499D01*
X007950Y005499D01*
X007950Y005559D01*
X008187Y005559D01*
X008187Y005940D01*
X008179Y005973D01*
X008161Y006003D01*
X008137Y006027D01*
X008108Y006044D01*
X008075Y006053D01*
X007950Y006053D01*
X007950Y005560D01*
X007890Y005560D01*
X007890Y006053D01*
X007765Y006053D01*
X007732Y006044D01*
X007702Y006027D01*
X007678Y006003D01*
X007655Y005953D02*
X007557Y005953D01*
X007557Y005894D02*
X007652Y005894D01*
X007652Y005836D02*
X007557Y005836D01*
X007557Y005777D02*
X007652Y005777D01*
X007652Y005719D02*
X007557Y005719D01*
X007557Y005660D02*
X007652Y005660D01*
X007652Y005601D02*
X007557Y005601D01*
X007557Y005543D02*
X007890Y005543D01*
X007890Y005499D02*
X007652Y005499D01*
X007652Y005119D01*
X007661Y005086D01*
X007678Y005056D01*
X007702Y005032D01*
X007732Y005015D01*
X007765Y005006D01*
X007890Y005006D01*
X007890Y005499D01*
X007890Y005484D02*
X007950Y005484D01*
X007950Y005499D02*
X007950Y005006D01*
X008075Y005006D01*
X008108Y005015D01*
X008137Y005032D01*
X008161Y005056D01*
X008179Y005086D01*
X008187Y005119D01*
X008187Y005499D01*
X007950Y005499D01*
X007950Y005543D02*
X008282Y005543D01*
X008282Y005601D02*
X008187Y005601D01*
X008187Y005660D02*
X008282Y005660D01*
X008282Y005719D02*
X008187Y005719D01*
X008187Y005777D02*
X008282Y005777D01*
X008282Y005836D02*
X008187Y005836D01*
X008187Y005894D02*
X008282Y005894D01*
X008282Y005953D02*
X008184Y005953D01*
X008153Y006011D02*
X008333Y006011D01*
X008335Y006013D02*
X008282Y005960D01*
X008282Y005098D01*
X008300Y005081D01*
X008300Y003271D01*
X008256Y003253D01*
X008189Y003185D01*
X008152Y003097D01*
X008152Y003001D01*
X008189Y002913D01*
X008256Y002846D01*
X008300Y002827D01*
X008300Y002671D01*
X008282Y002653D01*
X008282Y001791D01*
X008335Y001739D01*
X008685Y001739D01*
X008738Y001791D01*
X008738Y002653D01*
X008720Y002671D01*
X008720Y002962D01*
X008720Y005081D01*
X008738Y005098D01*
X008738Y005960D01*
X008685Y006013D01*
X008335Y006013D01*
X008687Y006011D02*
X008924Y006011D01*
X008926Y006013D02*
X008873Y005960D01*
X008873Y005098D01*
X008891Y005081D01*
X008891Y003394D01*
X008876Y003379D01*
X008876Y003192D01*
X008891Y003177D01*
X008891Y002671D01*
X008873Y002653D01*
X008873Y001791D01*
X008926Y001739D01*
X009276Y001739D01*
X009329Y001791D01*
X009329Y002653D01*
X009311Y002671D01*
X009311Y003177D01*
X009326Y003192D01*
X009326Y003379D01*
X009311Y003394D01*
X009311Y005081D01*
X009329Y005098D01*
X009329Y005960D01*
X009276Y006013D01*
X008926Y006013D01*
X008873Y005953D02*
X008738Y005953D01*
X008738Y005894D02*
X008873Y005894D01*
X008873Y005836D02*
X008738Y005836D01*
X008738Y005777D02*
X008873Y005777D01*
X008873Y005719D02*
X008738Y005719D01*
X008738Y005660D02*
X008873Y005660D01*
X008873Y005601D02*
X008738Y005601D01*
X008738Y005543D02*
X008873Y005543D01*
X008873Y005484D02*
X008738Y005484D01*
X008738Y005426D02*
X008873Y005426D01*
X008873Y005367D02*
X008738Y005367D01*
X008738Y005309D02*
X008873Y005309D01*
X008873Y005250D02*
X008738Y005250D01*
X008738Y005192D02*
X008873Y005192D01*
X008873Y005133D02*
X008738Y005133D01*
X008720Y005075D02*
X008891Y005075D01*
X008891Y005016D02*
X008720Y005016D01*
X008720Y004958D02*
X008891Y004958D01*
X008891Y004899D02*
X008720Y004899D01*
X008720Y004840D02*
X008891Y004840D01*
X008891Y004782D02*
X008720Y004782D01*
X008720Y004723D02*
X008891Y004723D01*
X008891Y004665D02*
X008720Y004665D01*
X008720Y004606D02*
X008891Y004606D01*
X008891Y004548D02*
X008720Y004548D01*
X008720Y004489D02*
X008891Y004489D01*
X008891Y004431D02*
X008720Y004431D01*
X008720Y004372D02*
X008891Y004372D01*
X008891Y004314D02*
X008720Y004314D01*
X008720Y004255D02*
X008891Y004255D01*
X008891Y004196D02*
X008720Y004196D01*
X008720Y004138D02*
X008891Y004138D01*
X008891Y004079D02*
X008720Y004079D01*
X008720Y004021D02*
X008891Y004021D01*
X008891Y003962D02*
X008720Y003962D01*
X008720Y003904D02*
X008891Y003904D01*
X008891Y003845D02*
X008720Y003845D01*
X008720Y003787D02*
X008891Y003787D01*
X008891Y003728D02*
X008720Y003728D01*
X008720Y003670D02*
X008891Y003670D01*
X008891Y003611D02*
X008720Y003611D01*
X008720Y003552D02*
X008891Y003552D01*
X008891Y003494D02*
X008720Y003494D01*
X008720Y003435D02*
X008891Y003435D01*
X008876Y003377D02*
X008720Y003377D01*
X008720Y003318D02*
X008876Y003318D01*
X008876Y003260D02*
X008720Y003260D01*
X008720Y003201D02*
X008876Y003201D01*
X008891Y003143D02*
X008720Y003143D01*
X008720Y003084D02*
X008891Y003084D01*
X008891Y003026D02*
X008720Y003026D01*
X008720Y002967D02*
X008891Y002967D01*
X008891Y002909D02*
X008720Y002909D01*
X008720Y002850D02*
X008891Y002850D01*
X008891Y002791D02*
X008720Y002791D01*
X008720Y002733D02*
X008891Y002733D01*
X008891Y002674D02*
X008720Y002674D01*
X008738Y002616D02*
X008873Y002616D01*
X008873Y002557D02*
X008738Y002557D01*
X008738Y002499D02*
X008873Y002499D01*
X008873Y002440D02*
X008738Y002440D01*
X008738Y002382D02*
X008873Y002382D01*
X008873Y002323D02*
X008738Y002323D01*
X008738Y002265D02*
X008873Y002265D01*
X008873Y002206D02*
X008738Y002206D01*
X008738Y002147D02*
X008873Y002147D01*
X008873Y002089D02*
X008738Y002089D01*
X008738Y002030D02*
X008873Y002030D01*
X008873Y001972D02*
X008738Y001972D01*
X008738Y001913D02*
X008873Y001913D01*
X008873Y001855D02*
X008738Y001855D01*
X008738Y001796D02*
X008873Y001796D01*
X009329Y001796D02*
X011857Y001796D01*
X011857Y001738D02*
X008150Y001738D01*
X008161Y001749D02*
X008179Y001778D01*
X008187Y001811D01*
X008187Y002192D01*
X007950Y002192D01*
X007950Y001699D01*
X008075Y001699D01*
X008108Y001708D01*
X008137Y001725D01*
X008161Y001749D01*
X008183Y001796D02*
X008282Y001796D01*
X008282Y001855D02*
X008187Y001855D01*
X008187Y001913D02*
X008282Y001913D01*
X008282Y001972D02*
X008187Y001972D01*
X008187Y002030D02*
X008282Y002030D01*
X008282Y002089D02*
X008187Y002089D01*
X008187Y002147D02*
X008282Y002147D01*
X008282Y002206D02*
X007950Y002206D01*
X007950Y002265D02*
X007890Y002265D01*
X007890Y002252D02*
X007890Y002746D01*
X007765Y002746D01*
X007732Y002737D01*
X007702Y002720D01*
X007678Y002696D01*
X007661Y002666D01*
X007652Y002633D01*
X007652Y002252D01*
X007890Y002252D01*
X007890Y002323D02*
X007950Y002323D01*
X007950Y002382D02*
X007890Y002382D01*
X007890Y002440D02*
X007950Y002440D01*
X007950Y002499D02*
X007890Y002499D01*
X007890Y002557D02*
X007950Y002557D01*
X007950Y002616D02*
X007890Y002616D01*
X007890Y002674D02*
X007950Y002674D01*
X007950Y002733D02*
X007890Y002733D01*
X008115Y002733D02*
X008300Y002733D01*
X008300Y002791D02*
X007539Y002791D01*
X007539Y002733D02*
X007724Y002733D01*
X007665Y002674D02*
X007539Y002674D01*
X007557Y002616D02*
X007652Y002616D01*
X007652Y002557D02*
X007557Y002557D01*
X007557Y002499D02*
X007652Y002499D01*
X007652Y002440D02*
X007557Y002440D01*
X007557Y002382D02*
X007652Y002382D01*
X007652Y002323D02*
X007557Y002323D01*
X007557Y002265D02*
X007652Y002265D01*
X007890Y002030D02*
X007950Y002030D01*
X007950Y001972D02*
X007890Y001972D01*
X007890Y001913D02*
X007950Y001913D01*
X007950Y001855D02*
X007890Y001855D01*
X007890Y001796D02*
X007950Y001796D01*
X007950Y001738D02*
X007890Y001738D01*
X008187Y002265D02*
X008282Y002265D01*
X008282Y002323D02*
X008187Y002323D01*
X008187Y002382D02*
X008282Y002382D01*
X008282Y002440D02*
X008187Y002440D01*
X008187Y002499D02*
X008282Y002499D01*
X008282Y002557D02*
X008187Y002557D01*
X008187Y002616D02*
X008282Y002616D01*
X008300Y002674D02*
X008174Y002674D01*
X008252Y002850D02*
X007539Y002850D01*
X007539Y002909D02*
X008193Y002909D01*
X008166Y002967D02*
X007539Y002967D01*
X007539Y003026D02*
X008152Y003026D01*
X008152Y003084D02*
X007539Y003084D01*
X007539Y003143D02*
X008171Y003143D01*
X008205Y003201D02*
X007539Y003201D01*
X007554Y003260D02*
X008274Y003260D01*
X008300Y003318D02*
X007554Y003318D01*
X007554Y003377D02*
X008300Y003377D01*
X008300Y003435D02*
X007539Y003435D01*
X007539Y003494D02*
X008300Y003494D01*
X008300Y003552D02*
X007539Y003552D01*
X007539Y003611D02*
X008300Y003611D01*
X008300Y003670D02*
X007539Y003670D01*
X007539Y003728D02*
X008300Y003728D01*
X008300Y003787D02*
X007539Y003787D01*
X007539Y003845D02*
X008300Y003845D01*
X008300Y003904D02*
X007539Y003904D01*
X007539Y003962D02*
X008300Y003962D01*
X008300Y004021D02*
X007539Y004021D01*
X007539Y004079D02*
X008300Y004079D01*
X008300Y004138D02*
X007539Y004138D01*
X007539Y004196D02*
X008300Y004196D01*
X008300Y004255D02*
X007539Y004255D01*
X007539Y004314D02*
X008300Y004314D01*
X008300Y004372D02*
X007539Y004372D01*
X007539Y004431D02*
X008300Y004431D01*
X008300Y004489D02*
X007539Y004489D01*
X007539Y004548D02*
X008300Y004548D01*
X008300Y004606D02*
X007539Y004606D01*
X007539Y004665D02*
X008300Y004665D01*
X008300Y004723D02*
X007539Y004723D01*
X007539Y004782D02*
X008300Y004782D01*
X008300Y004840D02*
X007539Y004840D01*
X007539Y004899D02*
X008300Y004899D01*
X008300Y004958D02*
X007539Y004958D01*
X007539Y005016D02*
X007729Y005016D01*
X007667Y005075D02*
X007539Y005075D01*
X007557Y005133D02*
X007652Y005133D01*
X007652Y005192D02*
X007557Y005192D01*
X007557Y005250D02*
X007652Y005250D01*
X007652Y005309D02*
X007557Y005309D01*
X007557Y005367D02*
X007652Y005367D01*
X007652Y005426D02*
X007557Y005426D01*
X007557Y005484D02*
X007652Y005484D01*
X007890Y005426D02*
X007950Y005426D01*
X007950Y005367D02*
X007890Y005367D01*
X007890Y005309D02*
X007950Y005309D01*
X007950Y005250D02*
X007890Y005250D01*
X007890Y005192D02*
X007950Y005192D01*
X007950Y005133D02*
X007890Y005133D01*
X007890Y005075D02*
X007950Y005075D01*
X007950Y005016D02*
X007890Y005016D01*
X008110Y005016D02*
X008300Y005016D01*
X008300Y005075D02*
X008172Y005075D01*
X008187Y005133D02*
X008282Y005133D01*
X008282Y005192D02*
X008187Y005192D01*
X008187Y005250D02*
X008282Y005250D01*
X008282Y005309D02*
X008187Y005309D01*
X008187Y005367D02*
X008282Y005367D01*
X008282Y005426D02*
X008187Y005426D01*
X008187Y005484D02*
X008282Y005484D01*
X007950Y005601D02*
X007890Y005601D01*
X007890Y005660D02*
X007950Y005660D01*
X007950Y005719D02*
X007890Y005719D01*
X007890Y005777D02*
X007950Y005777D01*
X007950Y005836D02*
X007890Y005836D01*
X007890Y005894D02*
X007950Y005894D01*
X007950Y005953D02*
X007890Y005953D01*
X007890Y006011D02*
X007950Y006011D01*
X006868Y006437D02*
X006815Y006384D01*
X006328Y006384D01*
X006328Y001367D01*
X006815Y001367D01*
X006868Y001315D01*
X006868Y000513D01*
X009562Y000513D01*
X009562Y001315D01*
X009615Y001367D01*
X010122Y001367D01*
X010175Y001315D01*
X010175Y000513D01*
X011857Y000513D01*
X011857Y007239D01*
X010175Y007239D01*
X010175Y006437D01*
X010122Y006384D01*
X009615Y006384D01*
X009562Y006437D01*
X009562Y007239D01*
X006868Y007239D01*
X006868Y006437D01*
X006852Y006421D02*
X009578Y006421D01*
X009562Y006480D02*
X006868Y006480D01*
X006868Y006538D02*
X009562Y006538D01*
X009562Y006597D02*
X006868Y006597D01*
X006868Y006655D02*
X009562Y006655D01*
X009562Y006714D02*
X006868Y006714D01*
X006868Y006772D02*
X009562Y006772D01*
X009562Y006831D02*
X006868Y006831D01*
X006868Y006889D02*
X009562Y006889D01*
X009562Y006948D02*
X006868Y006948D01*
X006868Y007007D02*
X009562Y007007D01*
X009562Y007065D02*
X006868Y007065D01*
X006868Y007124D02*
X009562Y007124D01*
X009562Y007182D02*
X006868Y007182D01*
X006328Y006363D02*
X011857Y006363D01*
X011857Y006421D02*
X010159Y006421D01*
X010175Y006480D02*
X011857Y006480D01*
X011857Y006538D02*
X010175Y006538D01*
X010175Y006597D02*
X011857Y006597D01*
X011857Y006655D02*
X010175Y006655D01*
X010175Y006714D02*
X011857Y006714D01*
X011857Y006772D02*
X010175Y006772D01*
X010175Y006831D02*
X011857Y006831D01*
X011857Y006889D02*
X010175Y006889D01*
X010175Y006948D02*
X011857Y006948D01*
X011857Y007007D02*
X010175Y007007D01*
X010175Y007065D02*
X011857Y007065D01*
X011857Y007124D02*
X010175Y007124D01*
X010175Y007182D02*
X011857Y007182D01*
X011857Y006304D02*
X006328Y006304D01*
X006328Y006245D02*
X011857Y006245D01*
X011857Y006187D02*
X006328Y006187D01*
X006328Y006128D02*
X011857Y006128D01*
X011857Y006070D02*
X006328Y006070D01*
X009278Y006011D02*
X011857Y006011D01*
X011857Y005953D02*
X009329Y005953D01*
X009329Y005894D02*
X011857Y005894D01*
X011857Y005836D02*
X009329Y005836D01*
X009329Y005777D02*
X011857Y005777D01*
X011857Y005719D02*
X009329Y005719D01*
X009329Y005660D02*
X011857Y005660D01*
X011857Y005601D02*
X009329Y005601D01*
X009329Y005543D02*
X011857Y005543D01*
X011857Y005484D02*
X009329Y005484D01*
X009329Y005426D02*
X011857Y005426D01*
X011857Y005367D02*
X009329Y005367D01*
X009329Y005309D02*
X011857Y005309D01*
X011857Y005250D02*
X009329Y005250D01*
X009329Y005192D02*
X011857Y005192D01*
X011857Y005133D02*
X009329Y005133D01*
X009311Y005075D02*
X011857Y005075D01*
X011857Y005016D02*
X009311Y005016D01*
X009311Y004958D02*
X011857Y004958D01*
X011857Y004899D02*
X009311Y004899D01*
X009311Y004840D02*
X011857Y004840D01*
X011857Y004782D02*
X009311Y004782D01*
X009311Y004723D02*
X011857Y004723D01*
X011857Y004665D02*
X009311Y004665D01*
X009311Y004606D02*
X011857Y004606D01*
X011857Y004548D02*
X009311Y004548D01*
X009311Y004489D02*
X011857Y004489D01*
X011857Y004431D02*
X009311Y004431D01*
X009311Y004372D02*
X011857Y004372D01*
X011857Y004314D02*
X009311Y004314D01*
X009311Y004255D02*
X011857Y004255D01*
X011857Y004196D02*
X009311Y004196D01*
X009311Y004138D02*
X011857Y004138D01*
X011857Y004079D02*
X009311Y004079D01*
X009311Y004021D02*
X011857Y004021D01*
X011857Y003962D02*
X009311Y003962D01*
X009311Y003904D02*
X011857Y003904D01*
X011857Y003845D02*
X009311Y003845D01*
X009311Y003787D02*
X011857Y003787D01*
X011857Y003728D02*
X009311Y003728D01*
X009311Y003670D02*
X011857Y003670D01*
X011857Y003611D02*
X009311Y003611D01*
X009311Y003552D02*
X011857Y003552D01*
X011857Y003494D02*
X009311Y003494D01*
X009311Y003435D02*
X011857Y003435D01*
X011857Y003377D02*
X009326Y003377D01*
X009326Y003318D02*
X011857Y003318D01*
X011857Y003260D02*
X009326Y003260D01*
X009326Y003201D02*
X011857Y003201D01*
X011857Y003143D02*
X009311Y003143D01*
X009311Y003084D02*
X011857Y003084D01*
X011857Y003026D02*
X009311Y003026D01*
X009311Y002967D02*
X011857Y002967D01*
X011857Y002909D02*
X009311Y002909D01*
X009311Y002850D02*
X011857Y002850D01*
X011857Y002791D02*
X009311Y002791D01*
X009311Y002733D02*
X011857Y002733D01*
X011857Y002674D02*
X009311Y002674D01*
X009329Y002616D02*
X011857Y002616D01*
X011857Y002557D02*
X009329Y002557D01*
X009329Y002499D02*
X011857Y002499D01*
X011857Y002440D02*
X009329Y002440D01*
X009329Y002382D02*
X011857Y002382D01*
X011857Y002323D02*
X009329Y002323D01*
X009329Y002265D02*
X011857Y002265D01*
X011857Y002206D02*
X009329Y002206D01*
X009329Y002147D02*
X011857Y002147D01*
X011857Y002089D02*
X009329Y002089D01*
X009329Y002030D02*
X011857Y002030D01*
X011857Y001972D02*
X009329Y001972D01*
X009329Y001913D02*
X011857Y001913D01*
X011857Y001855D02*
X009329Y001855D01*
X009575Y001328D02*
X006855Y001328D01*
X006868Y001269D02*
X009562Y001269D01*
X009562Y001211D02*
X006868Y001211D01*
X006868Y001152D02*
X009562Y001152D01*
X009562Y001094D02*
X006868Y001094D01*
X006868Y001035D02*
X009562Y001035D01*
X009562Y000977D02*
X006868Y000977D01*
X006868Y000918D02*
X009562Y000918D01*
X009562Y000859D02*
X006868Y000859D01*
X006868Y000801D02*
X009562Y000801D01*
X009562Y000742D02*
X006868Y000742D01*
X006868Y000684D02*
X009562Y000684D01*
X009562Y000625D02*
X006868Y000625D01*
X006868Y000567D02*
X009562Y000567D01*
X010175Y000567D02*
X011857Y000567D01*
X011857Y000625D02*
X010175Y000625D01*
X010175Y000684D02*
X011857Y000684D01*
X011857Y000742D02*
X010175Y000742D01*
X010175Y000801D02*
X011857Y000801D01*
X011857Y000859D02*
X010175Y000859D01*
X010175Y000918D02*
X011857Y000918D01*
X011857Y000977D02*
X010175Y000977D01*
X010175Y001035D02*
X011857Y001035D01*
X011857Y001094D02*
X010175Y001094D01*
X010175Y001152D02*
X011857Y001152D01*
X011857Y001211D02*
X010175Y001211D01*
X010175Y001269D02*
X011857Y001269D01*
X011857Y001328D02*
X010162Y001328D01*
X011857Y001386D02*
X006328Y001386D01*
X006328Y001445D02*
X011857Y001445D01*
X011857Y001503D02*
X006328Y001503D01*
X006328Y001562D02*
X011857Y001562D01*
X011857Y001621D02*
X006328Y001621D01*
X006328Y001679D02*
X011857Y001679D01*
M02*
