G75*
G70*
%OFA0B0*%
%FSLAX24Y24*%
%IPPOS*%
%LPD*%
%AMOC8*
5,1,8,0,0,1.08239X$1,22.5*
%
%ADD10C,0.0000*%
%ADD11C,0.0010*%
%ADD12C,0.0050*%
%ADD13C,0.0080*%
%ADD14C,0.0060*%
%ADD15R,0.0118X0.0059*%
%ADD16R,0.0118X0.0118*%
D10*
X006148Y000333D02*
X006148Y007419D01*
X012054Y007419D01*
X012054Y000333D01*
X006148Y000333D01*
D11*
X008020Y001297D02*
X008020Y001497D01*
X007995Y001472D02*
X007970Y001447D01*
X007995Y001472D02*
X008046Y001472D01*
X008071Y001447D01*
X008071Y001422D01*
X008046Y001397D01*
X007995Y001397D01*
X007970Y001372D01*
X007970Y001347D01*
X007995Y001322D01*
X008046Y001322D01*
X008071Y001347D01*
X008118Y001347D02*
X008118Y001472D01*
X008218Y001472D02*
X008218Y001347D01*
X008193Y001322D01*
X008143Y001322D01*
X008118Y001347D01*
X007923Y001322D02*
X007823Y001322D01*
X007873Y001322D02*
X007873Y001472D01*
X007923Y001422D01*
X008755Y000591D02*
X008780Y000616D01*
X008830Y000616D01*
X008855Y000591D01*
X008902Y000591D02*
X008902Y000541D01*
X008927Y000516D01*
X009002Y000516D01*
X008952Y000516D02*
X008902Y000466D01*
X008855Y000466D02*
X008755Y000566D01*
X008755Y000591D01*
X008755Y000466D02*
X008855Y000466D01*
X008902Y000591D02*
X008927Y000616D01*
X009002Y000616D01*
X009002Y000466D01*
X007217Y004599D02*
X007116Y004599D01*
X007069Y004599D02*
X006969Y004599D01*
X006922Y004599D02*
X006847Y004599D01*
X006822Y004624D01*
X006822Y004724D01*
X006847Y004749D01*
X006922Y004749D01*
X006922Y004599D01*
X007019Y004674D02*
X007069Y004674D01*
X007069Y004749D02*
X006969Y004749D01*
X007069Y004749D02*
X007069Y004599D01*
X007217Y004599D02*
X007217Y004749D01*
X006775Y004699D02*
X006725Y004749D01*
X006725Y004599D01*
X006775Y004599D02*
X006675Y004599D01*
X008252Y004774D02*
X008353Y004774D01*
X008400Y004774D02*
X008450Y004824D01*
X008425Y004824D02*
X008500Y004824D01*
X008500Y004774D02*
X008500Y004924D01*
X008425Y004924D01*
X008400Y004899D01*
X008400Y004849D01*
X008425Y004824D01*
X008353Y004874D02*
X008303Y004924D01*
X008303Y004774D01*
X009434Y004774D02*
X009534Y004774D01*
X009484Y004774D02*
X009484Y004924D01*
X009534Y004874D01*
X009581Y004899D02*
X009606Y004924D01*
X009656Y004924D01*
X009681Y004899D01*
X009681Y004799D01*
X009656Y004774D01*
X009606Y004774D01*
X009581Y004799D01*
X007521Y005653D02*
X007521Y005803D01*
X007446Y005803D01*
X007421Y005778D01*
X007421Y005728D01*
X007446Y005703D01*
X007521Y005703D01*
X007471Y005703D02*
X007421Y005653D01*
X007374Y005678D02*
X007349Y005653D01*
X007299Y005653D01*
X007274Y005678D01*
X007274Y005703D01*
X007299Y005728D01*
X007324Y005728D01*
X007299Y005728D02*
X007274Y005753D01*
X007274Y005778D01*
X007299Y005803D01*
X007349Y005803D01*
X007374Y005778D01*
X006734Y005803D02*
X006734Y005653D01*
X006734Y005703D02*
X006659Y005703D01*
X006634Y005728D01*
X006634Y005778D01*
X006659Y005803D01*
X006734Y005803D01*
X006684Y005703D02*
X006634Y005653D01*
X006586Y005728D02*
X006486Y005728D01*
X006511Y005653D02*
X006511Y005803D01*
X006586Y005728D01*
D12*
X009691Y004939D02*
X009691Y004624D01*
X009691Y004939D02*
X010439Y004939D01*
X009691Y001711D02*
X009691Y001396D01*
X010439Y001396D01*
D13*
X009065Y002777D02*
X009067Y002792D01*
X009073Y002805D01*
X009082Y002817D01*
X009093Y002826D01*
X009107Y002832D01*
X009122Y002834D01*
X009137Y002832D01*
X009150Y002826D01*
X009162Y002817D01*
X009171Y002806D01*
X009177Y002792D01*
X009179Y002777D01*
X009177Y002762D01*
X009171Y002749D01*
X009162Y002737D01*
X009151Y002728D01*
X009137Y002722D01*
X009122Y002720D01*
X009107Y002722D01*
X009094Y002728D01*
X009082Y002737D01*
X009073Y002748D01*
X009067Y002762D01*
X009065Y002777D01*
D14*
X009342Y002457D02*
X009342Y003877D01*
X007482Y003877D02*
X007482Y002457D01*
X008825Y001396D02*
X009061Y001396D01*
X009061Y000923D02*
X008825Y000923D01*
X008825Y005451D02*
X008825Y005687D01*
X009101Y005687D02*
X009101Y005451D01*
X009573Y005451D02*
X009573Y005687D01*
X008353Y005687D02*
X008353Y005451D01*
X007683Y006317D02*
X007683Y006553D01*
X007211Y006553D02*
X007211Y006317D01*
X006857Y006317D02*
X006857Y006553D01*
X006384Y006553D02*
X006384Y006317D01*
D15*
X007113Y005490D03*
X007113Y005018D03*
D16*
X007113Y005254D03*
M02*
